<svg width="150" height="42" viewBox="0 0 112 32" fill="none" xmlns="http://www.w3.org/2000/svg">
<path d="M6.072 21.088C5.32533 21.088 4.536 20.9707 3.704 20.736C2.89333 20.5227 2.168 20.16 1.528 19.648C0.909333 19.136 0.493333 18.4533 0.28 17.6C0.258667 17.4933 0.237333 17.376 0.216 17.248C0.216 17.12 0.216 16.992 0.216 16.864C0.216 16.2027 0.365333 15.5627 0.664 14.944C0.962667 14.3253 1.32533 13.856 1.752 13.536H1.784C1.82667 13.536 1.88 13.5893 1.944 13.696C2.02933 13.7813 2.02933 13.8453 1.944 13.888C1.73067 14.1013 1.57067 14.3467 1.464 14.624C1.37867 14.88 1.336 15.1573 1.336 15.456C1.336 15.8613 1.4 16.2773 1.528 16.704C1.67733 17.1093 1.85867 17.4613 2.072 17.76C2.60533 18.5067 3.34133 19.104 4.28 19.552C5.24 19.9787 6.17867 20.192 7.096 20.192C8.35467 20.192 9.32533 19.8187 10.008 19.072C10.712 18.3253 11.064 17.408 11.064 16.32C11.064 15.6587 10.936 14.9973 10.68 14.336C10.3387 13.4187 9.88 12.5227 9.304 11.648C8.74933 10.752 8.23733 9.87733 7.768 9.024C7.36267 8.256 7.16 7.47733 7.16 6.688C7.16 5.856 7.416 5.056 7.928 4.288C8.44 3.60533 9.112 3.06133 9.944 2.656C10.7973 2.22933 11.6613 2.016 12.536 2.016C13.1333 2.016 13.7093 2.12267 14.264 2.336C14.8187 2.54933 15.32 2.90133 15.768 3.392C15.896 3.584 15.96 3.82933 15.96 4.128C15.96 4.55467 15.8747 4.88533 15.704 5.12C15.512 5.39733 15.2987 5.76 15.064 6.208C14.8293 6.656 14.6907 6.96533 14.648 7.136C14.6053 7.15733 14.4987 7.2 14.328 7.264C14.1787 7.30667 14.0827 7.296 14.04 7.232C14.1253 7.06133 14.2427 6.752 14.392 6.304C14.5413 5.856 14.616 5.45067 14.616 5.088C14.616 4.85333 14.6053 4.59733 14.584 4.32C14.584 4.02133 14.4453 3.76533 14.168 3.552C13.912 3.31733 13.5813 3.11467 13.176 2.944C12.7707 2.77333 12.28 2.688 11.704 2.688C10.5307 2.688 9.63467 3.02933 9.016 3.712C8.39733 4.39467 8.088 5.14133 8.088 5.952C8.088 6.35733 8.17333 6.76267 8.344 7.168C8.664 7.936 9.112 8.66133 9.688 9.344C10.264 10.0267 10.8293 10.7307 11.384 11.456C11.96 12.16 12.408 12.928 12.728 13.76C12.9413 14.3147 13.048 14.88 13.048 15.456C13.048 16.288 12.8347 17.0453 12.408 17.728C12.0027 18.4107 11.448 19.008 10.744 19.52C10.0613 20.0107 9.31467 20.3947 8.504 20.672C7.69333 20.9493 6.88267 21.088 6.072 21.088ZM15.8055 20.096C15.5922 20.096 15.4108 20.0533 15.2615 19.968C15.1122 19.8827 15.0375 19.7227 15.0375 19.488C15.0375 19.1893 15.1122 18.8373 15.2615 18.432C15.4322 18.0267 15.6135 17.6213 15.8055 17.216C15.9975 16.8107 16.1575 16.48 16.2855 16.224C16.3922 16.032 16.5308 15.7333 16.7015 15.328C16.8935 14.9013 17.0855 14.464 17.2775 14.016C17.4908 13.5467 17.6615 13.152 17.7895 12.832C17.9388 12.512 18.0135 12.352 18.0135 12.352C17.8215 12.5653 17.5655 12.864 17.2455 13.248C16.9468 13.632 16.6162 14.0373 16.2535 14.464C15.9122 14.8693 15.5922 15.2533 15.2935 15.616C15.0162 15.9787 14.8135 16.2453 14.6855 16.416C14.6215 16.5013 14.5682 16.544 14.5255 16.544C14.4828 16.544 14.4615 16.4907 14.4615 16.384C14.4615 16.2133 14.5148 16.0533 14.6215 15.904C14.8775 15.584 15.1868 15.2 15.5495 14.752C15.9122 14.2827 16.2748 13.8133 16.6375 13.344C17.0215 12.8747 17.3522 12.4587 17.6295 12.096C17.4588 12.096 17.2348 12.1067 16.9575 12.128C16.7015 12.1493 16.4668 12.1813 16.2535 12.224C16.0402 12.2453 15.9228 12.256 15.9015 12.256C15.7948 12.256 15.8055 12.1707 15.9335 12C16.0615 11.8293 16.2322 11.6587 16.4455 11.488C16.6588 11.3173 16.8188 11.232 16.9255 11.232C16.9468 11.232 17.1175 11.2427 17.4375 11.264C17.7575 11.264 17.9922 11.264 18.1415 11.264C18.5682 10.688 18.9842 10.0267 19.3895 9.28C19.8162 8.53333 20.2322 7.712 20.6375 6.816C20.8082 6.79467 21.0962 6.67733 21.5015 6.464C21.9282 6.22933 22.2588 5.99467 22.4935 5.76C22.6002 5.65333 22.6855 5.6 22.7495 5.6C22.8775 5.6 22.8775 5.68533 22.7495 5.856C22.6002 6.02667 22.3442 6.38933 21.9815 6.944C21.6188 7.47733 21.2135 8.128 20.7655 8.896C20.3175 9.64267 19.8908 10.432 19.4855 11.264H22.0775C22.3122 11.264 22.4295 11.296 22.4295 11.36C22.4295 11.4453 22.2695 11.5307 21.9495 11.616C21.5868 11.7227 21.2028 11.7867 20.7975 11.808C20.4135 11.8293 20.0508 11.872 19.7095 11.936C19.3895 12 19.1548 12.1387 19.0055 12.352C18.8775 12.5013 18.6962 12.8213 18.4615 13.312C18.2268 13.8027 17.9708 14.368 17.6935 15.008C17.4375 15.6267 17.2135 16.256 17.0215 16.896C16.8295 17.5147 16.7122 18.0373 16.6695 18.464V18.592C16.6695 18.7627 16.7228 18.9013 16.8295 19.008C16.9362 19.1147 17.0428 19.168 17.1495 19.168C17.4268 19.168 17.7788 18.9973 18.2055 18.656C18.6535 18.3147 19.1122 17.9093 19.5815 17.44C20.0508 16.9493 20.4562 16.5013 20.7975 16.096C20.9468 15.9253 21.0748 15.7653 21.1815 15.616C21.3095 15.4667 21.3842 15.3707 21.4055 15.328C21.4482 15.4133 21.4695 15.4773 21.4695 15.52C21.4695 15.648 21.4268 15.7867 21.3415 15.936C21.2775 16.0853 21.2028 16.2133 21.1175 16.32C20.7122 16.8533 20.2215 17.4187 19.6455 18.016C19.0695 18.592 18.4508 19.0827 17.7895 19.488C17.1495 19.8933 16.4882 20.096 15.8055 20.096ZM22.6613 20.096C22.4479 20.096 22.2666 20.0533 22.1173 19.968C21.9679 19.8827 21.8932 19.7227 21.8932 19.488C21.8932 19.1893 21.9679 18.8373 22.1173 18.432C22.2879 18.0267 22.4693 17.6213 22.6613 17.216C22.8533 16.8107 23.0133 16.48 23.1413 16.224C23.3973 15.7333 23.6426 15.2427 23.8773 14.752C24.1119 14.2613 24.3146 13.8453 24.4852 13.504C24.6559 13.184 24.7413 12.9707 24.7413 12.864C24.7413 12.6933 24.6133 12.6933 24.3573 12.864C24.1226 13.0347 23.8986 13.2053 23.6853 13.376C23.2159 13.824 22.7253 14.3573 22.2133 14.976C21.7013 15.5733 21.3066 16.0533 21.0293 16.416C20.9653 16.5013 20.9119 16.544 20.8693 16.544C20.8266 16.544 20.8053 16.4907 20.8053 16.384C20.8053 16.2133 20.8586 16.0533 20.9653 15.904C21.2639 15.4773 21.6159 15.008 22.0213 14.496C22.4266 13.984 22.8426 13.4933 23.2693 13.024C23.6746 12.5973 24.0906 12.1813 24.5173 11.776C24.9439 11.3707 25.4879 11.168 26.1493 11.168C26.5973 11.168 26.8213 11.3387 26.8213 11.68C26.8213 11.9787 26.6933 12.32 26.4373 12.704C26.2879 12.9387 26.0533 13.3333 25.7333 13.888C25.4133 14.4427 25.0826 15.0507 24.7413 15.712C24.4213 16.352 24.1439 16.9493 23.9093 17.504C23.6746 18.0587 23.5573 18.464 23.5573 18.72C23.5573 19.0187 23.7066 19.168 24.0052 19.168C24.2399 19.168 24.5279 19.0507 24.8693 18.816C25.2106 18.56 25.5626 18.2613 25.9253 17.92C26.5866 17.28 27.1839 16.5867 27.7173 15.84C28.2719 15.072 28.7413 14.336 29.1253 13.632C29.5306 12.928 29.8506 12.352 30.0853 11.904C30.1279 11.8187 30.1706 11.7227 30.2133 11.616C30.2773 11.488 30.3733 11.4133 30.5013 11.392C30.6293 11.3707 30.9066 11.36 31.3333 11.36C31.7599 11.36 32.1546 11.2747 32.5173 11.104H32.5813C32.6453 11.104 32.6773 11.136 32.6773 11.2C32.6773 11.3707 32.5386 11.4987 32.2613 11.584C32.0053 11.6693 31.7066 11.9253 31.3653 12.352C31.0453 12.7787 30.7253 13.3013 30.4053 13.92C30.0853 14.5173 29.7973 15.136 29.5413 15.776C29.2853 16.416 29.0933 17.0027 28.9653 17.536C28.8373 18.0693 28.8053 18.464 28.8693 18.72C28.9546 19.0187 29.1039 19.168 29.3173 19.168C29.5946 19.168 29.9786 18.9973 30.4693 18.656C30.9813 18.3147 31.5039 17.9093 32.0373 17.44C32.5706 16.9493 33.0079 16.5013 33.3493 16.096C33.4986 15.9253 33.6373 15.7547 33.7653 15.584C33.8933 15.4133 33.9786 15.3067 34.0213 15.264C34.0426 15.2853 34.0639 15.328 34.0853 15.392C34.1066 15.4347 34.1173 15.4773 34.1173 15.52C34.0959 15.6693 34.0426 15.8187 33.9573 15.968C33.8719 16.096 33.7759 16.2133 33.6693 16.32C33.2639 16.8533 32.7733 17.4187 32.1973 18.016C31.6426 18.592 31.0346 19.0827 30.3733 19.488C29.7333 19.8933 29.0719 20.096 28.3893 20.096C28.1759 20.096 27.9306 20.0427 27.6533 19.936C27.3973 19.8293 27.2693 19.5947 27.2693 19.232C27.2693 18.9547 27.3439 18.5813 27.4933 18.112C27.6426 17.6213 27.8026 17.1413 27.9733 16.672C28.1653 16.1813 28.3253 15.8187 28.4533 15.584C28.1759 15.9893 27.8346 16.448 27.4293 16.96C27.0453 17.4507 26.6506 17.888 26.2453 18.272C25.7119 18.784 25.1359 19.2213 24.5173 19.584C23.9199 19.9253 23.3013 20.096 22.6613 20.096ZM37.7838 20.096C37.5704 20.096 37.3891 20.0533 37.2398 19.968C37.0904 19.8827 37.0158 19.7227 37.0158 19.488C37.0158 19.1893 37.0904 18.848 37.2398 18.464C37.3891 18.08 37.5598 17.7067 37.7518 17.344C37.9438 16.96 38.1144 16.6507 38.2638 16.416C37.5171 17.2053 36.7384 17.952 35.9278 18.656C35.5224 18.9973 35.0744 19.3173 34.5838 19.616C34.0931 19.9147 33.5704 20.064 33.0158 20.064C32.8024 20.064 32.6531 20 32.5678 19.872C32.4824 19.7227 32.4398 19.552 32.4398 19.36C32.4398 19.2533 32.4504 19.1787 32.4718 19.136C32.5784 18.304 32.8451 17.44 33.2718 16.544C33.6984 15.648 34.2211 14.8053 34.8398 14.016C35.4584 13.2267 36.0878 12.5867 36.7278 12.096C37.2184 11.7333 37.6878 11.5093 38.1358 11.424C38.5838 11.3173 39.0744 11.264 39.6078 11.264H40.6638C41.0051 10.688 41.3571 10.048 41.7198 9.344C42.1038 8.61867 42.4771 7.904 42.8398 7.2C43.2238 6.496 43.5758 5.87733 43.8958 5.344C44.7704 3.85067 45.7304 2.656 46.7758 1.76C47.8424 0.863998 49.0264 0.415998 50.3278 0.415998C50.6051 0.415998 50.8611 0.501332 51.0958 0.671999C51.3304 0.821333 51.4371 1.056 51.4158 1.376L51.3518 2.528C51.3518 2.54933 51.3304 2.58133 51.2878 2.624C51.2451 2.64533 51.2131 2.656 51.1918 2.656C51.1704 2.656 51.1384 2.63467 51.0958 2.592C51.0318 2.208 50.8398 1.92 50.5198 1.728C50.1998 1.51467 49.8051 1.408 49.3358 1.408C49.1864 1.408 49.0158 1.41867 48.8238 1.44C48.6531 1.46133 48.4824 1.504 48.3118 1.568C47.7144 1.78133 47.1491 2.21867 46.6158 2.88C46.0824 3.52 45.5064 4.37333 44.8878 5.44C44.6744 5.84533 44.3971 6.37867 44.0558 7.04C43.7144 7.68 43.3518 8.37333 42.9678 9.12C42.6051 9.86667 42.2531 10.592 41.9118 11.296C41.5918 12 41.3144 12.5973 41.0798 13.088C40.9731 13.344 40.7918 13.7387 40.5358 14.272C40.2798 14.784 40.0024 15.3493 39.7038 15.968C39.4264 16.5653 39.1811 17.12 38.9678 17.632C38.7758 18.144 38.6798 18.5067 38.6798 18.72C38.6798 19.0187 38.8078 19.168 39.0638 19.168C39.3198 19.168 39.6611 19.0187 40.0878 18.72C40.5144 18.4 40.9518 18.016 41.3998 17.568C41.8691 17.0987 42.2851 16.6507 42.6478 16.224C43.0318 15.7973 43.2984 15.4773 43.4478 15.264C43.5118 15.328 43.5438 15.4027 43.5438 15.488C43.5438 15.6373 43.4798 15.7867 43.3518 15.936C43.2451 16.0853 43.1491 16.2133 43.0638 16.32C42.6798 16.832 42.1998 17.3867 41.6238 17.984C41.0691 18.56 40.4611 19.0613 39.7998 19.488C39.1384 19.8933 38.4664 20.096 37.7838 20.096ZM34.3278 18.976C34.5838 18.976 34.9358 18.7947 35.3838 18.432C35.8531 18.048 36.3544 17.5787 36.8878 17.024C37.4211 16.448 37.9224 15.8507 38.3918 15.232C38.8611 14.592 39.2451 14.016 39.5438 13.504C39.8638 12.9707 40.0238 12.5653 40.0238 12.288C40.0238 12.0533 39.9491 11.8933 39.7998 11.808C39.6718 11.7227 39.5011 11.68 39.2878 11.68C38.9464 11.68 38.5731 11.808 38.1678 12.064C37.7838 12.2987 37.4744 12.5333 37.2398 12.768C36.9838 13.0027 36.6744 13.376 36.3118 13.888C35.9704 14.3787 35.6291 14.9227 35.2878 15.52C34.9464 16.1173 34.6584 16.6933 34.4238 17.248C34.1891 17.8027 34.0718 18.2507 34.0718 18.592C34.0718 18.848 34.1571 18.976 34.3278 18.976ZM39.542 31.2C38.7313 31.2 37.9527 31.008 37.206 30.624C36.438 30.2613 35.8727 29.696 35.51 28.928C35.382 28.6507 35.2967 28.352 35.254 28.032C35.2113 27.7333 35.19 27.4347 35.19 27.136V26.784C35.19 26.6133 35.2113 26.4533 35.254 26.304C35.2967 26.176 35.4033 26.112 35.574 26.112C35.6167 26.112 35.638 26.1333 35.638 26.176C35.638 26.304 35.6273 26.432 35.606 26.56C35.5847 26.688 35.574 26.8267 35.574 26.976C35.574 27.9573 35.894 28.704 36.534 29.216C37.1527 29.728 37.9313 29.984 38.87 29.984C39.254 29.984 39.6487 29.9413 40.054 29.856C40.4593 29.7707 40.8433 29.6533 41.206 29.504C42.55 28.928 43.7127 28.1067 44.694 27.04C45.6967 25.9947 46.5713 24.8107 47.318 23.488C48.0647 22.1653 48.7367 20.8213 49.334 19.456C49.6753 18.6453 49.974 17.856 50.23 17.088C50.5073 16.32 50.7527 15.6267 50.966 15.008C50.7527 15.3067 50.4753 15.6693 50.134 16.096C49.7927 16.5227 49.4513 16.9387 49.11 17.344C48.7687 17.728 48.47 18.0373 48.214 18.272C47.6807 18.784 47.1047 19.2213 46.486 19.584C45.8887 19.9253 45.27 20.096 44.63 20.096C44.4167 20.096 44.2353 20.0533 44.086 19.968C43.9367 19.8827 43.862 19.7227 43.862 19.488C43.862 19.1893 43.9367 18.8373 44.086 18.432C44.2567 18.0267 44.438 17.6213 44.63 17.216C44.822 16.8107 44.982 16.48 45.11 16.224C45.366 15.7333 45.6113 15.2427 45.846 14.752C46.0807 14.2613 46.2833 13.8453 46.454 13.504C46.6247 13.184 46.71 12.9707 46.71 12.864C46.71 12.6933 46.582 12.6933 46.326 12.864C46.0913 13.0347 45.8673 13.2053 45.654 13.376C45.1847 13.824 44.694 14.3573 44.182 14.976C43.67 15.5733 43.2753 16.0533 42.998 16.416C42.934 16.5013 42.8807 16.544 42.838 16.544C42.7953 16.544 42.774 16.4907 42.774 16.384C42.774 16.2133 42.8273 16.0533 42.934 15.904C43.2327 15.4773 43.5847 15.008 43.99 14.496C44.3953 13.984 44.8113 13.4933 45.238 13.024C45.6433 12.5973 46.0593 12.1813 46.486 11.776C46.9127 11.3707 47.4567 11.168 48.118 11.168C48.566 11.168 48.79 11.3387 48.79 11.68C48.79 11.9787 48.662 12.32 48.406 12.704C48.2567 12.9387 48.022 13.3333 47.702 13.888C47.382 14.4427 47.0513 15.0507 46.71 15.712C46.39 16.352 46.1127 16.9493 45.878 17.504C45.6433 18.0587 45.526 18.464 45.526 18.72C45.526 19.0187 45.6753 19.168 45.974 19.168C46.2087 19.168 46.4967 19.0507 46.838 18.816C47.1793 18.56 47.5313 18.2613 47.894 17.92C48.5127 17.3227 49.078 16.6613 49.59 15.936C50.1233 15.2107 50.582 14.5173 50.966 13.856C51.03 13.7493 51.1367 13.5573 51.286 13.28C51.4567 13.0027 51.6273 12.736 51.798 12.48C51.99 12.224 52.1393 12.0747 52.246 12.032C52.3527 11.9893 52.566 11.872 52.886 11.68C53.206 11.488 53.526 11.36 53.846 11.296C54.1447 11.232 54.3687 11.2 54.518 11.2C54.7527 11.2 54.87 11.264 54.87 11.392C54.87 11.5627 54.774 11.648 54.582 11.648C54.3473 11.648 54.134 11.712 53.942 11.84C53.75 11.9467 53.6007 12.0853 53.494 12.256C53.302 12.5333 53.0247 13.0347 52.662 13.76C52.3207 14.4853 51.9367 15.328 51.51 16.288C51.1047 17.2267 50.6993 18.1867 50.294 19.168C49.8887 20.128 49.5153 21.0133 49.174 21.824C48.662 23.04 48.0753 24.224 47.414 25.376C46.7527 26.5493 45.974 27.5947 45.078 28.512C44.2033 29.4507 43.158 30.1867 41.942 30.72C41.2167 31.04 40.4167 31.2 39.542 31.2ZM76.6203 20.96C76.5563 20.96 76.4923 20.9387 76.4283 20.896C76.3856 20.8533 76.3749 20.8213 76.3963 20.8C76.5456 20.608 76.6629 20.3947 76.7483 20.16C76.8549 19.9467 76.9509 19.7227 77.0363 19.488C76.7589 17.9947 76.3856 16.4373 75.9163 14.816C75.4683 13.1947 74.9776 11.5733 74.4443 9.952C73.9323 8.30933 73.4416 6.752 72.9723 5.28C72.8229 5.38667 72.6629 5.64267 72.4923 6.048C72.3429 6.45333 72.2363 6.752 72.1723 6.944C71.8949 7.66933 71.5643 8.52267 71.1803 9.504C70.8176 10.464 70.4016 11.4667 69.9323 12.512C69.4843 13.536 68.9723 14.5493 68.3963 15.552C67.8416 16.5333 67.2229 17.4293 66.5403 18.24C66.2203 18.6453 65.7829 19.008 65.2283 19.328C64.6736 19.6267 64.0976 19.8613 63.5003 20.032C62.9029 20.224 62.3589 20.32 61.8683 20.32C61.2069 20.32 60.5669 20.1387 59.9483 19.776C59.3509 19.392 58.9029 18.816 58.6043 18.048C58.5189 17.7707 58.4549 17.4827 58.4123 17.184C58.3696 16.864 58.3483 16.5547 58.3483 16.256C58.3483 15.9573 58.4016 15.808 58.5083 15.808C58.6149 15.808 58.6683 15.8933 58.6683 16.064C58.6683 17.0667 58.9456 17.8987 59.5003 18.56C60.0549 19.2213 60.7163 19.552 61.4843 19.552C62.2309 19.552 62.9776 19.3707 63.7243 19.008C64.4709 18.6453 65.1429 18.144 65.7403 17.504C66.7003 16.4373 67.5109 15.3067 68.1723 14.112C68.8336 12.9173 69.4203 11.68 69.9323 10.4C70.4443 9.12 70.9669 7.84 71.5003 6.56C71.8203 5.74933 72.2683 5.04533 72.8443 4.448C73.4203 3.85067 74.0923 3.47733 74.8603 3.328H73.1003C72.3536 3.328 71.5643 3.36 70.7323 3.424C69.9003 3.488 69.1429 3.62667 68.4603 3.84C67.7776 4.05333 67.2869 4.37333 66.9883 4.8C66.8176 5.056 66.7323 5.36533 66.7323 5.728C66.7323 6.112 66.8283 6.47467 67.0203 6.816C67.2123 7.15733 67.4576 7.40267 67.7563 7.552C67.7989 7.59467 67.8203 7.616 67.8203 7.616C67.8203 7.68 67.7669 7.744 67.6603 7.808C67.5749 7.85067 67.4789 7.86133 67.3723 7.84C67.2016 7.73333 66.9883 7.56267 66.7323 7.328C66.4763 7.072 66.2416 6.80533 66.0283 6.528C65.8363 6.25067 65.7083 6.016 65.6443 5.824C65.5589 5.568 65.5163 5.312 65.5163 5.056C65.5163 4.544 65.6976 4.128 66.0603 3.808C66.4443 3.488 66.9349 3.24267 67.5323 3.072C68.1296 2.90133 68.7696 2.784 69.4523 2.72C70.1563 2.63467 70.8283 2.592 71.4683 2.592C72.1083 2.57067 72.6629 2.56 73.1323 2.56H77.0043C77.1109 2.53867 77.1109 2.61333 77.0043 2.784C76.9189 2.95467 76.8016 3.12533 76.6523 3.296C76.5243 3.44533 76.4176 3.52 76.3323 3.52C76.1189 3.49867 75.7883 3.54133 75.3403 3.648C74.9136 3.73333 74.6149 3.84 74.4443 3.968C74.5083 4.77867 74.6576 5.728 74.8923 6.816C75.1483 7.904 75.4469 9.056 75.7882 10.272C76.1296 11.4667 76.5029 12.672 76.9083 13.888C77.3349 15.0827 77.7509 16.2027 78.1562 17.248C78.4976 16.4373 78.8816 15.4453 79.3083 14.272C79.7349 13.0987 80.1829 11.8507 80.6523 10.528C81.1429 9.20533 81.6443 7.92533 82.1563 6.688C82.6896 5.42933 83.2123 4.30933 83.7243 3.328C84.2576 2.34667 84.7803 1.62133 85.2923 1.152C85.5483 0.917332 85.8576 0.735999 86.2203 0.608C86.5829 0.458666 86.9243 0.383999 87.2443 0.383999C87.5429 0.383999 87.7989 0.458666 88.0123 0.608C88.2256 0.735999 88.3216 0.949333 88.3003 1.248L88.2683 2.4C88.2683 2.42133 88.2149 2.44267 88.1083 2.464C88.0016 2.48533 87.9589 2.48533 87.9803 2.464C88.0016 2.18667 87.8949 1.99467 87.6603 1.888C87.4256 1.76 87.2336 1.696 87.0843 1.696C86.6363 1.67467 86.1563 1.952 85.6443 2.528C85.1536 3.104 84.6416 3.86133 84.1083 4.8C83.5749 5.73867 83.0523 6.77333 82.5403 7.904C82.0283 9.01333 81.5376 10.1333 81.0683 11.264C80.6203 12.3733 80.2149 13.3973 79.8523 14.336C79.4896 15.2747 79.1909 16.0107 78.9563 16.544C78.7429 16.992 78.6363 17.4293 78.6363 17.856C78.6363 17.92 78.6363 17.984 78.6363 18.048C78.6363 18.112 78.6469 18.176 78.6683 18.24C78.6683 18.3253 78.6789 18.4213 78.7003 18.528C78.7429 18.6347 78.7749 18.7413 78.7963 18.848C78.7963 18.8693 78.7963 18.8907 78.7963 18.912C78.8176 18.9333 78.8283 18.9653 78.8283 19.008C78.8283 19.1787 78.7429 19.328 78.5723 19.456C78.3589 19.6053 78.1243 19.7333 77.8683 19.84C77.7189 19.904 77.5056 20.064 77.2283 20.32C76.9723 20.5973 76.8123 20.7893 76.7483 20.896C76.7056 20.9387 76.6629 20.96 76.6203 20.96ZM82.8188 20.064C82.4774 20.064 82.1681 20 81.8908 19.872C81.6348 19.7227 81.5068 19.4133 81.5068 18.944C81.5068 18.1973 81.6988 17.4507 82.0828 16.704C82.4668 15.936 82.8614 15.264 83.2668 14.688C83.6294 14.1973 84.0348 13.7387 84.4828 13.312C84.9521 12.864 85.4534 12.48 85.9868 12.16C86.3281 11.9467 86.7868 11.7227 87.3628 11.488C87.9601 11.232 88.4614 11.104 88.8668 11.104C89.2081 11.104 89.5068 11.2 89.7628 11.392C90.0188 11.5627 90.1468 11.8827 90.1468 12.352C90.1468 13.0773 89.9548 13.824 89.5708 14.592C89.2081 15.3387 88.8241 16 88.4188 16.576C88.2268 16.832 88.0348 17.0773 87.8428 17.312C87.6508 17.5253 87.4374 17.7493 87.2028 17.984C87.9921 17.984 88.7174 17.76 89.3788 17.312C90.0401 16.8427 90.6161 16.2773 91.1068 15.616L91.1708 15.552C91.2348 15.552 91.2668 15.616 91.2668 15.744C91.2668 15.8933 91.2241 16.032 91.1388 16.16C90.7121 16.7573 90.1788 17.2907 89.5388 17.76C88.8988 18.208 88.1734 18.432 87.3628 18.432C87.2774 18.432 87.1921 18.432 87.1068 18.432C87.0214 18.432 86.9361 18.4213 86.8508 18.4C85.6561 19.5093 84.3121 20.064 82.8188 20.064ZM83.6508 19.52C83.9494 19.52 84.2694 19.4133 84.6108 19.2C84.9734 18.9867 85.2508 18.784 85.4427 18.592C85.8054 18.2293 86.1361 17.8453 86.4348 17.44C86.7334 17.0133 87.0108 16.5867 87.2668 16.16C87.5654 15.648 87.8641 15.04 88.1628 14.336C88.4614 13.632 88.6108 12.9707 88.6108 12.352C88.6108 11.8613 88.4401 11.616 88.0988 11.616C87.8214 11.616 87.4801 11.7333 87.0748 11.968C86.6908 12.2027 86.4028 12.416 86.2108 12.608C85.4854 13.3547 84.8774 14.1653 84.3868 15.04C84.1094 15.5307 83.8108 16.1067 83.4908 16.768C83.1708 17.4293 83.0108 18.0373 83.0108 18.592C83.0108 18.6773 83.0108 18.7627 83.0108 18.848C83.0321 18.912 83.0534 18.9867 83.0748 19.072C83.1601 19.3707 83.3521 19.52 83.6508 19.52ZM92.0555 20.096C91.8422 20.096 91.6608 20.0533 91.5115 19.968C91.3622 19.8827 91.2875 19.7227 91.2875 19.488C91.2875 19.1893 91.3622 18.8373 91.5115 18.432C91.6822 18.0267 91.8635 17.6213 92.0555 17.216C92.2475 16.8107 92.4075 16.48 92.5355 16.224C92.6422 16.032 92.7808 15.7333 92.9515 15.328C93.1435 14.9013 93.3355 14.464 93.5275 14.016C93.7408 13.5467 93.9115 13.152 94.0395 12.832C94.1888 12.512 94.2635 12.352 94.2635 12.352C94.0715 12.5653 93.8155 12.864 93.4955 13.248C93.1968 13.632 92.8662 14.0373 92.5035 14.464C92.1622 14.8693 91.8422 15.2533 91.5435 15.616C91.2662 15.9787 91.0635 16.2453 90.9355 16.416C90.8715 16.5013 90.8182 16.544 90.7755 16.544C90.7328 16.544 90.7115 16.4907 90.7115 16.384C90.7115 16.2133 90.7648 16.0533 90.8715 15.904C91.1275 15.584 91.4368 15.2 91.7995 14.752C92.1622 14.2827 92.5248 13.8133 92.8875 13.344C93.2715 12.8747 93.6022 12.4587 93.8795 12.096C93.7088 12.096 93.4848 12.1067 93.2075 12.128C92.9515 12.1493 92.7168 12.1813 92.5035 12.224C92.2902 12.2453 92.1728 12.256 92.1515 12.256C92.0448 12.256 92.0555 12.1707 92.1835 12C92.3115 11.8293 92.4822 11.6587 92.6955 11.488C92.9088 11.3173 93.0688 11.232 93.1755 11.232C93.1968 11.232 93.3675 11.2427 93.6875 11.264C94.0075 11.264 94.2422 11.264 94.3915 11.264C94.8182 10.688 95.2342 10.0267 95.6395 9.28C96.0662 8.53333 96.4822 7.712 96.8875 6.816C97.0582 6.79467 97.3462 6.67733 97.7515 6.464C98.1782 6.22933 98.5088 5.99467 98.7435 5.76C98.8502 5.65333 98.9355 5.6 98.9995 5.6C99.1275 5.6 99.1275 5.68533 98.9995 5.856C98.8502 6.02667 98.5942 6.38933 98.2315 6.944C97.8688 7.47733 97.4635 8.128 97.0155 8.896C96.5675 9.64267 96.1408 10.432 95.7355 11.264H98.3275C98.5622 11.264 98.6795 11.296 98.6795 11.36C98.6795 11.4453 98.5195 11.5307 98.1995 11.616C97.8368 11.7227 97.4528 11.7867 97.0475 11.808C96.6635 11.8293 96.3008 11.872 95.9595 11.936C95.6395 12 95.4048 12.1387 95.2555 12.352C95.1275 12.5013 94.9462 12.8213 94.7115 13.312C94.4768 13.8027 94.2208 14.368 93.9435 15.008C93.6875 15.6267 93.4635 16.256 93.2715 16.896C93.0795 17.5147 92.9622 18.0373 92.9195 18.464V18.592C92.9195 18.7627 92.9728 18.9013 93.0795 19.008C93.1862 19.1147 93.2928 19.168 93.3995 19.168C93.6768 19.168 94.0288 18.9973 94.4555 18.656C94.9035 18.3147 95.3622 17.9093 95.8315 17.44C96.3008 16.9493 96.7062 16.5013 97.0475 16.096C97.1968 15.9253 97.3248 15.7653 97.4315 15.616C97.5595 15.4667 97.6342 15.3707 97.6555 15.328C97.6982 15.4133 97.7195 15.4773 97.7195 15.52C97.7195 15.648 97.6768 15.7867 97.5915 15.936C97.5275 16.0853 97.4528 16.2133 97.3675 16.32C96.9622 16.8533 96.4715 17.4187 95.8955 18.016C95.3195 18.592 94.7008 19.0827 94.0395 19.488C93.3995 19.8933 92.7382 20.096 92.0555 20.096ZM98.9433 20.256C98.0686 20.256 97.4606 20.0853 97.1193 19.744C96.7779 19.4027 96.6073 18.9867 96.6073 18.496C96.6073 17.8773 96.7673 17.216 97.0872 16.512C97.4286 15.808 97.7486 15.2107 98.0473 14.72C98.3886 14.208 98.8473 13.6747 99.4233 13.12C99.9993 12.5653 100.629 12.096 101.311 11.712C101.994 11.328 102.655 11.136 103.295 11.136C103.85 11.136 104.234 11.2747 104.447 11.552C104.661 11.808 104.767 12.1173 104.767 12.48C104.767 13.1413 104.565 13.6853 104.159 14.112C103.775 14.5387 103.295 14.8907 102.719 15.168C102.143 15.424 101.589 15.6373 101.055 15.808C100.735 15.8933 100.362 15.9787 99.9353 16.064C99.5086 16.1493 99.1033 16.192 98.7193 16.192C98.5699 16.576 98.4526 16.9493 98.3673 17.312C98.2819 17.6747 98.2393 18.0053 98.2393 18.304C98.2393 18.6667 98.3246 18.9653 98.4953 19.2C98.6873 19.4347 98.9966 19.552 99.4233 19.552C99.5939 19.552 99.7966 19.5307 100.031 19.488C100.266 19.4453 100.522 19.3813 100.799 19.296C101.439 19.0827 102.069 18.7413 102.687 18.272C103.306 17.8027 103.871 17.3013 104.383 16.768C104.917 16.2133 105.322 15.7547 105.599 15.392C105.663 15.456 105.695 15.5307 105.695 15.616C105.695 15.7227 105.621 15.8933 105.471 16.128C105.045 16.7253 104.49 17.344 103.807 17.984C103.125 18.624 102.367 19.168 101.535 19.616C100.703 20.0427 99.8393 20.256 98.9433 20.256ZM98.9753 15.552C99.2526 15.5733 99.5619 15.5733 99.9033 15.552C100.266 15.5093 100.618 15.4347 100.959 15.328C101.834 15.072 102.463 14.6667 102.847 14.112C103.253 13.536 103.455 13.024 103.455 12.576C103.455 12.32 103.402 12.1067 103.295 11.936C103.189 11.7653 103.018 11.68 102.783 11.68C102.165 11.68 101.61 11.9147 101.119 12.384C100.629 12.832 100.202 13.3547 99.8393 13.952C99.4766 14.5493 99.1886 15.0827 98.9753 15.552ZM107.008 20.512C106.624 20.512 106.219 20.4587 105.792 20.352C105.365 20.2453 104.981 20.0747 104.64 19.84C104.32 19.584 104.107 19.2427 104 18.816C103.979 18.752 103.968 18.656 103.968 18.528C103.968 18.2293 104.032 17.8987 104.16 17.536C104.309 17.1733 104.491 16.9173 104.704 16.768C104.789 16.7253 104.853 16.7253 104.896 16.768C104.96 16.8107 104.971 16.8533 104.928 16.896C104.907 16.96 104.875 17.0453 104.832 17.152C104.789 17.2373 104.757 17.3333 104.736 17.44C104.672 17.9947 104.789 18.4853 105.088 18.912C105.216 19.0827 105.365 19.2427 105.536 19.392C105.728 19.5413 105.909 19.6693 106.08 19.776C106.229 19.8613 106.411 19.9253 106.624 19.968C106.837 19.9893 107.051 20 107.264 20C107.605 20 107.936 19.9573 108.256 19.872C108.576 19.7867 108.811 19.648 108.96 19.456C109.237 19.1147 109.376 18.7307 109.376 18.304C109.376 17.984 109.291 17.6427 109.12 17.28C108.949 16.9173 108.683 16.5333 108.32 16.128C108.085 15.872 107.861 15.5947 107.648 15.296C107.435 14.9973 107.296 14.6773 107.232 14.336C107.211 14.272 107.189 14.208 107.168 14.144C107.168 14.08 107.168 14.016 107.168 13.952C106.891 14.3573 106.603 14.7413 106.304 15.104C106.027 15.4453 105.781 15.744 105.568 16C105.483 16.128 105.408 16.192 105.344 16.192C105.301 16.192 105.28 16.1493 105.28 16.064C105.28 15.872 105.365 15.6693 105.536 15.456C105.707 15.264 105.899 15.0293 106.112 14.752C106.325 14.4533 106.496 14.2187 106.624 14.048C106.987 13.5147 107.253 13.0987 107.424 12.8C107.616 12.48 107.819 12.192 108.032 11.936C108.267 11.6587 108.555 11.4347 108.896 11.264C109.259 11.0933 109.632 11.008 110.016 11.008C110.464 11.008 110.869 11.0827 111.232 11.232C111.616 11.36 111.819 11.7013 111.84 12.256C111.84 12.512 111.787 12.7787 111.68 13.056C111.595 13.312 111.499 13.5573 111.392 13.792C111.328 13.92 111.232 14.016 111.104 14.08C110.997 14.1227 110.944 14.1013 110.944 14.016C110.944 13.9307 110.955 13.8347 110.976 13.728C110.997 13.6213 111.008 13.5253 111.008 13.44C111.008 13.0773 110.944 12.7573 110.816 12.48C110.709 12.1813 110.549 11.968 110.336 11.84C110.123 11.6907 109.899 11.616 109.664 11.616C109.323 11.616 108.992 11.7547 108.672 12.032C108.352 12.288 108.192 12.6293 108.192 13.056C108.192 13.0987 108.192 13.152 108.192 13.216C108.192 13.28 108.203 13.3333 108.224 13.376C108.309 13.7173 108.565 14.1013 108.992 14.528C109.419 14.9547 109.749 15.328 109.984 15.648C110.389 16.2027 110.592 16.768 110.592 17.344C110.592 17.92 110.421 18.4533 110.08 18.944C109.76 19.4133 109.323 19.7867 108.768 20.064C108.235 20.3627 107.648 20.512 107.008 20.512Z" fill="white"/>
</svg>
